<mxfile host="Electron" agent="Mozilla/5.0 (Macintosh; Intel Mac OS X 10_15_7) AppleWebKit/537.36 (KHTML, like Gecko) draw.io/24.7.17 Chrome/128.0.6613.36 Electron/32.0.1 Safari/537.36" version="24.7.17">
  <diagram name="Page-1" id="-QQBXwXmi5vmVXOyA-aN">
    <mxGraphModel dx="726" dy="526" grid="1" gridSize="10" guides="1" tooltips="1" connect="1" arrows="1" fold="1" page="1" pageScale="1" pageWidth="827" pageHeight="1169" math="0" shadow="0">
      <root>
        <mxCell id="0" />
        <mxCell id="1" parent="0" />
        <mxCell id="jwadOJ81lBPS6uENHRD--1" value="&lt;font style=&quot;font-size: 15px;&quot;&gt;Counter&lt;/font&gt;&lt;div&gt;&lt;font style=&quot;font-size: 15px;&quot;&gt;mod_8&lt;/font&gt;&lt;/div&gt;" style="rounded=0;whiteSpace=wrap;html=1;" parent="1" vertex="1">
          <mxGeometry x="360" y="400" width="120" height="160" as="geometry" />
        </mxCell>
        <mxCell id="jwadOJ81lBPS6uENHRD--2" value="" style="endArrow=classic;html=1;rounded=0;" parent="1" edge="1">
          <mxGeometry width="50" height="50" relative="1" as="geometry">
            <mxPoint x="310" y="450" as="sourcePoint" />
            <mxPoint x="360" y="450" as="targetPoint" />
          </mxGeometry>
        </mxCell>
        <mxCell id="jwadOJ81lBPS6uENHRD--3" value="" style="endArrow=classic;html=1;rounded=0;" parent="1" edge="1">
          <mxGeometry width="50" height="50" relative="1" as="geometry">
            <mxPoint x="310" y="480" as="sourcePoint" />
            <mxPoint x="360" y="480" as="targetPoint" />
          </mxGeometry>
        </mxCell>
        <mxCell id="jwadOJ81lBPS6uENHRD--4" value="" style="endArrow=classic;html=1;rounded=0;" parent="1" edge="1">
          <mxGeometry width="50" height="50" relative="1" as="geometry">
            <mxPoint x="310" y="509.5" as="sourcePoint" />
            <mxPoint x="360" y="509.5" as="targetPoint" />
          </mxGeometry>
        </mxCell>
        <mxCell id="jwadOJ81lBPS6uENHRD--7" value="" style="endArrow=classic;html=1;rounded=0;" parent="1" edge="1">
          <mxGeometry width="50" height="50" relative="1" as="geometry">
            <mxPoint x="480" y="480" as="sourcePoint" />
            <mxPoint x="530" y="480" as="targetPoint" />
          </mxGeometry>
        </mxCell>
        <mxCell id="jwadOJ81lBPS6uENHRD--18" value="//" style="edgeLabel;html=1;align=center;verticalAlign=middle;resizable=0;points=[];" parent="jwadOJ81lBPS6uENHRD--7" vertex="1" connectable="0">
          <mxGeometry x="-0.12" y="1" relative="1" as="geometry">
            <mxPoint as="offset" />
          </mxGeometry>
        </mxCell>
        <mxCell id="jwadOJ81lBPS6uENHRD--9" value="&lt;font style=&quot;font-size: 13px;&quot;&gt;clk&lt;/font&gt;" style="text;html=1;align=center;verticalAlign=middle;whiteSpace=wrap;rounded=0;" parent="1" vertex="1">
          <mxGeometry x="280" y="440" width="30" height="20" as="geometry" />
        </mxCell>
        <mxCell id="jwadOJ81lBPS6uENHRD--10" value="&lt;font style=&quot;font-size: 13px;&quot;&gt;en_cnt&lt;/font&gt;" style="text;html=1;align=center;verticalAlign=middle;whiteSpace=wrap;rounded=0;" parent="1" vertex="1">
          <mxGeometry x="270" y="470" width="30" height="20" as="geometry" />
        </mxCell>
        <mxCell id="jwadOJ81lBPS6uENHRD--11" value="&lt;font style=&quot;font-size: 13px;&quot;&gt;rst&lt;/font&gt;" style="text;html=1;align=center;verticalAlign=middle;whiteSpace=wrap;rounded=0;" parent="1" vertex="1">
          <mxGeometry x="280" y="500" width="30" height="20" as="geometry" />
        </mxCell>
        <mxCell id="jwadOJ81lBPS6uENHRD--15" value="&lt;font style=&quot;font-size: 13px;&quot;&gt;cnt&lt;/font&gt;" style="text;html=1;align=center;verticalAlign=middle;whiteSpace=wrap;rounded=0;" parent="1" vertex="1">
          <mxGeometry x="530" y="470" width="50" height="20" as="geometry" />
        </mxCell>
        <mxCell id="jwadOJ81lBPS6uENHRD--19" value="&lt;font style=&quot;font-size: 10px;&quot;&gt;3&lt;/font&gt;" style="text;html=1;align=center;verticalAlign=middle;whiteSpace=wrap;rounded=0;" parent="1" vertex="1">
          <mxGeometry x="490" y="460" width="30" height="10" as="geometry" />
        </mxCell>
      </root>
    </mxGraphModel>
  </diagram>
</mxfile>
